# xmcd CD database file
#
# Track frame offsets:
#	150
#	13391
#	28156
#	41608
#	55460
#	69157
#	81583
#	95936
#	109051
#	121678
#	136609
#	151111
#
# Disc length: 2206 seconds
#
# Revision: 0
# Processed by: cddbd v1.5.2PL0 Copyright (c) Steve Scherf et al.
# Submitted via: CDex 1.51
#
DISCID=9e089c0c
DTITLE=Billie Holiday - Masters of Jazz
DYEAR=2006
DGENRE=Jazz
TTITLE0=Summertime
TTITLE1=Embraceable You
TTITLE2=All of me
TTITLE3=They can't take that away from me
TTITLE4=The way you look tonight
TTITLE5=The very thought of you
TTITLE6=As time goes by
TTITLE7=I only have eyes for you
TTITLE8=I can't get started
TTITLE9=Lover Man (Oh, where can you be?)
TTITLE10=Strange fruit
TTITLE11=I cried for you
EXTD=YEAR: 2006
EXTT0=
EXTT1=
EXTT2=
EXTT3=
EXTT4=
EXTT5=
EXTT6=
EXTT7=
EXTT8=
EXTT9=
EXTT10=
EXTT11=
PLAYORDER=
